<svg id="Capa_1" data-name="Capa 1" xmlns="http://www.w3.org/2000/svg" viewBox="0 0 383.94 367.03"><defs><style>.cls-1{fill:#ff9017}.cls-2{fill:#ef7d0a}</style></defs><path class="cls-1" d="M260.47 205.83a127.85 127.85 0 0154.44 70.28c20.86 66.09-15.17 137.53-80.72 160a128.38 128.38 0 01-161-168.85s16.2-53.6 24.71-89.72c5.71-24.25 5.68-51.57 12.85-76.51l.77-2.66a12.15 12.15 0 0119.24-6.15l15 15.89c10.68 11.06 25.75 23 36 32.5 32.64 30.27 78.77 65.18 78.77 65.18z" transform="translate(-64.03 -89.6)"/><path class="cls-2" d="M244.25 425.67l.27-.08c4.64-1.54 3.43-8.39-1.46-8.35a128.42 128.42 0 01-120.24-175.87s18.44-59.64 10.33-100.1c-.51-2.55-5.73-22.46-10.92-30.47-5.67-8.76-8.07 25.49-15.18 61.74-7.36 37.6-21.85 83-22.13 83.71a128.39 128.39 0 00159.33 169.42z" transform="translate(-64.03 -89.6)"/><path class="cls-1" d="M426.36 257a127.86 127.86 0 0120.7 86.46c-8.19 68.81-70.43 119.09-139.43 112.63a128.38 128.38 0 01-77.28-220.16s36.82-42.18 59.44-71.6c15.21-19.78 26.39-44.7 43.21-64.47l1.8-2.11a12.14 12.14 0 0120.06 2.31l7.1 20.64c5.18 14.48 14 31.51 19.47 44.45 17.29 41 45 91.82 45 91.82z" transform="translate(-64.03 -89.6)"/><path class="cls-2" d="M321.11 450.67h.28c4.86.51 6.58-6.23 2.11-8.21a128.41 128.41 0 01-37.22-209.76s41.35-46.77 50.61-87c.59-2.53 4-22.83 2.59-32.26-1.57-10.32-17.85 19.91-39.24 50-22.19 31.23-54.09 66.68-54.62 67.18a128.39 128.39 0 0075.5 220z" transform="translate(-64.03 -89.6)"/><path d="M39.64 72.41v.01-.01zm200.68 77.68h-.01.01z"/></svg>