<svg height="512" viewBox="0 0 510 510" width="512" xmlns="http://www.w3.org/2000/svg"><path d="M346.966 1.099c-7.759-3.122-16.576.635-19.697 8.391-12.623 31.357-39.036 46.085-53.657 52.073l11.474 28.019c19.042-7.798 53.492-27.104 70.27-68.785 3.123-7.758-.634-16.576-8.39-19.698z" fill="#754f35"/><path d="M428.26 290.47H81.69c0-110.52 84.14-179.41 173.29-179.41h.02c91.42.02 173.26 71.08 173.26 179.41z" fill="#895140"/><path d="M428.26 290.47H255V111.06c91.42.02 173.26 71.08 173.26 179.41z" fill="#5b362a"/><path d="M183.61 192.435l-5.488-5.487c-5.912-5.912-5.913-15.497-.001-21.409 5.912-5.913 15.497-5.913 21.41-.001l5.488 5.487c5.912 5.912 5.913 15.497.001 21.409-5.91 5.91-15.494 5.915-21.41.001z" fill="#ffda2e"/><path d="M304.981 195.177c-5.912-5.913-5.911-15.498.002-21.409l5.488-5.487c5.913-5.911 15.499-5.911 21.409.002 5.912 5.913 5.911 15.498-.002 21.409l-5.488 5.487c-5.911 5.91-15.497 5.912-21.409-.002z" fill="#ff712f"/><path d="M270.624 206.518l-1.887 7.519c-1.655 6.54-7.337 11.011-13.736 11.414a14.974 14.974 0 01-4.653-.434c-8.104-2.039-13.019-10.264-10.971-18.378l1.887-7.519c1.655-6.56 7.337-11.021 13.736-11.415 1.524-.101 3.088.04 4.653.434 8.105 2.039 13.02 10.264 10.971 18.379z" fill="#ff9f00"/><path d="M290.27 134.58c-9.74 9.74-22.5 14.61-35.27 14.61s-25.53-4.87-35.27-14.61c-19.48-19.48-19.48-51.06 0-70.54 9.74-9.74 22.5-14.6 35.27-14.6s25.53 4.86 35.27 14.6c19.48 19.48 19.48 51.06 0 70.54z" fill="#ff0059"/><path d="M290.27 134.58c-9.74 9.74-22.5 14.61-35.27 14.61V49.44c12.77 0 25.53 4.86 35.27 14.6 19.48 19.48 19.48 51.06 0 70.54z" fill="#e50058"/><path d="M453.158 296.432l-16.966 53.753-46.991 148.794A15.784 15.784 0 01374.163 510H135.838a15.784 15.784 0 01-15.038-11.021L73.819 350.195l-16.976-53.763c-1.554-4.905.656-10.254 5.268-12.545 41.894-20.902 82.607-16.794 115.408 4.219.061-.04.101-.07.151-.101a152.107 152.107 0 01154.779.112l.03-.01c32.498-20.811 73.181-25.292 115.408-4.229 4.604 2.3 6.825 7.639 5.271 12.554z" fill="#ffda2e"/><path d="M453.158 296.432l-16.966 53.753-46.991 148.794A15.784 15.784 0 01374.163 510H255.001V266.901a152.101 152.101 0 0177.45 21.215l.03-.01c32.498-20.811 73.181-25.292 115.408-4.229 4.602 2.301 6.823 7.64 5.269 12.555z" fill="#ff9f00"/><path d="M436.192 350.185l-46.991 148.794A15.784 15.784 0 01374.163 510H135.838a15.784 15.784 0 01-15.038-11.021L73.819 350.195c37.726-14.785 82.547-9.628 112.29 9.416 22.981-13.908 45.588-21.295 68.892-21.194 22.022.101 44.68 6.883 68.882 21.204 4.218-2.059 53.611-32.427 112.309-9.436z" fill="#ff6c6c"/><path d="M436.192 350.185l-46.991 148.794A15.784 15.784 0 01374.163 510H255.001V338.417c22.022.101 44.68 6.883 68.882 21.204 4.218-2.059 53.611-32.427 112.309-9.436z" fill="#ff0059"/><path d="M332.481 288.106c-.933 7.757-7.723 64.244-8.599 71.516L305.796 510H204.225l-18.106-150.389-8.599-71.506h.01c.01 0 .01-.01.02-.01.061-.03.101-.06.151-.091A152.027 152.027 0 01255 266.901c26.796 0 53.592 7.065 77.481 21.205z" fill="#ff9f00"/><path d="M332.481 288.106l-8.599 71.516L305.796 510H255V266.901c26.796 0 53.592 7.065 77.481 21.205z" fill="#ff712f"/><path d="M323.882 359.621L305.796 510H204.225l-18.106-150.389c22.971-13.897 45.578-21.295 68.882-21.194 22.032.091 44.679 6.883 68.881 21.204z" fill="#ff0059"/><path d="M323.882 359.621L305.796 510H255V338.417c22.033.091 44.68 6.883 68.882 21.204z" fill="#e50058"/></svg>